<svg width="64" height="64" viewBox="0 0 64 64" xmlns="http://www.w3.org/2000/svg">
  <!-- Background Circle -->
  <circle cx="32" cy="32" r="30" fill="#ffffff" stroke="#2563eb" stroke-width="4"/>
  
  <!-- Shield Background -->
  <path d="M20 18 Q20 12 26 12 H38 Q44 12 44 18 V30 Q44 42 32 50 Q20 42 20 30 V18 Z" 
        fill="#2563eb" opacity="0.1"/>
  
  <!-- Shield Outline -->
  <path d="M20 18 Q20 12 26 12 H38 Q44 12 44 18 V30 Q44 42 32 50 Q20 42 20 30 V18 Z" 
        fill="none" stroke="#2563eb" stroke-width="3" stroke-linejoin="round"/>
  
  <!-- Location Pin Inside Shield -->
  <circle cx="32" cy="24" r="4" fill="#2563eb"/>
  <circle cx="32" cy="24" r="2" fill="#ffffff"/>
  <path d="M32 28 L28 36 Q32 34 36 36 Z" fill="#2563eb"/>
  
  <!-- Compass Direction Indicator -->
  <g transform="translate(46, 46)">
    <circle cx="0" cy="0" r="6" fill="#ffffff" stroke="#2563eb" stroke-width="2"/>
    <polygon points="0,-4 1.5,0 0,4 -1.5,0" fill="#2563eb"/>
    <text x="0" y="1.5" text-anchor="middle" font-family="Arial, sans-serif" font-size="4" font-weight="bold" fill="#2563eb">N</text>
  </g>
  
  <!-- Protection Rays -->
  <g stroke="#2563eb" stroke-width="2" opacity="0.6">
    <line x1="18" y1="18" x2="14" y2="14"/>
    <line x1="46" y1="18" x2="50" y2="14"/>
    <line x1="18" y1="42" x2="14" y2="46"/>
    <line x1="46" y1="42" x2="50" y2="46"/>
  </g>
</svg>